# xmcd CD database file
#
# Track frame offsets:
#	150
#	22181
#	49880
#	79253
#	104237
#	138369
#	159473
#	191526
#	223195
#
# Disc length: 3309 seconds
#
# Revision: 0
# Processed by: cddbd v1.5.2PL0 Copyright (c) Steve Scherf et al.
# Submitted via: CDex 1.70beta2
#
DISCID=860ceb09
DTITLE=허진호 and 조윤성 - 허진호 and 조윤성
DYEAR=2008
DGENRE=Jazz
TTITLE0=Feliz El Cumplezno
TTITLE1=For Shadow
TTITLE2=Blues for S.J.
TTITLE3=Brigas Nunca Mais
TTITLE4=Body and Soul
TTITLE5=Solar
TTITLE6=I'll Close My Eyes
TTITLE7=All of You
TTITLE8=I'll be Seeing You
EXTD=YEAR: 2008
EXTT0=
EXTT1=
EXTT2=
EXTT3=
EXTT4=
EXTT5=
EXTT6=
EXTT7=
EXTT8=
PLAYORDER=
